<?xml version="1.0" ?><!DOCTYPE svg  PUBLIC '-//W3C//DTD SVG 1.1//EN'  'http://www.w3.org/Graphics/SVG/1.1/DTD/svg11.dtd'><svg enable-background="new 0 0 64 64" height="64px" id="Layer_1" version="1.1" viewBox="0 0 64 64" width="64px" xml:space="preserve" xmlns="http://www.w3.org/2000/svg" xmlns:xlink="http://www.w3.org/1999/xlink"><g><path d="M62.077,54.095c-0.746,1.922-3.647,5.525-5.674,7.064c-1.836,1.39-3.134,1.923-4.849,2.004   c-1.411,0.069-1.996-0.051-3.8-0.796c-14.152-5.827-25.451-14.522-34.424-26.47C8.645,29.658,5.077,23.187,2.639,16.474   c-1.422-3.916-1.492-5.616-0.324-7.62C2.82,8.01,4.968,5.917,6.527,4.75c2.603-1.933,3.801-2.648,4.759-2.848   c0.655-0.142,1.795-0.032,2.521,0.23c0.353,0.121,0.896,0.404,1.209,0.604c1.916,1.269,7.247,8.083,8.99,11.483   c0.997,1.943,1.331,3.382,1.019,4.449c-0.321,1.147-0.856,1.75-3.245,3.673c-0.958,0.774-1.855,1.57-1.996,1.781   c-0.364,0.523-0.657,1.549-0.657,2.274c0.013,1.682,1.102,4.73,2.532,7.076c1.108,1.821,3.095,4.156,5.061,5.949   c2.308,2.112,4.344,3.551,6.642,4.689c2.954,1.469,4.758,1.841,6.078,1.227c0.333-0.15,0.686-0.352,0.797-0.442   c0.102-0.091,0.877-1.037,1.725-2.084c1.633-2.053,2.004-2.385,3.123-2.768c1.421-0.482,2.871-0.352,4.334,0.393   c1.11,0.574,3.529,2.073,5.091,3.16c2.055,1.439,6.453,5.022,7.046,5.736C62.603,50.622,62.781,52.274,62.077,54.095z" fill="#9165B7"/><path d="M61.554,49.333c-0.593-0.714-4.991-4.296-7.046-5.736c-1.562-1.087-3.98-2.586-5.091-3.16   c-1.463-0.745-2.913-0.875-4.334-0.393c-1.119,0.383-1.49,0.715-3.123,2.768c-0.848,1.047-1.623,1.993-1.725,2.084   c-0.111,0.09-0.464,0.292-0.797,0.442c-1.32,0.614-3.124,0.242-6.078-1.227c-2.298-1.138-4.334-2.577-6.642-4.689   c-1.966-1.793-3.952-4.128-5.061-5.949c-1.431-2.346-2.52-5.395-2.532-7.076c0-0.725,0.293-1.75,0.657-2.274   c0.057-0.086,0.239-0.269,0.499-0.504c-3.558,2.134-7.83,3.38-12.427,3.38c-0.118,0-0.235-0.008-0.354-0.01   c1.702,3.021,3.639,5.991,5.829,8.909c8.973,11.948,20.271,20.643,34.424,26.47c1.804,0.745,2.389,0.866,3.8,0.796   c1.715-0.082,3.013-0.615,4.849-2.004c2.026-1.539,4.928-5.142,5.674-7.064C62.781,52.274,62.603,50.622,61.554,49.333z" fill="#7B509C"/><path d="M31.597,1.276c0.475-0.432,0.807-0.493,2.45-0.441c0.855,0.03,2.116,0.13,2.803,0.21   c3.466,0.433,6.268,1.268,9.342,2.768c3.025,1.479,4.96,2.878,7.521,5.425c2.399,2.404,3.728,4.228,5.14,7.056   c1.966,3.944,3.086,8.634,3.276,13.798c0.069,1.761,0.021,2.154-0.383,2.657c-0.767,0.976-2.447,0.814-3.022-0.282   c-0.183-0.362-0.233-0.674-0.293-2.084c-0.103-2.163-0.253-3.562-0.554-5.233c-1.189-6.552-4.335-11.786-9.354-15.54   c-4.184-3.14-8.508-4.67-14.172-5.002c-1.915-0.11-2.25-0.181-2.682-0.513C30.861,3.46,30.821,1.971,31.597,1.276z" fill="#9165B7"/><path d="M43.611,14.24c-2.026-1.208-5.021-2.105-7.751-2.326c-0.988-0.08-1.532-0.282-1.905-0.715   c-0.573-0.654-0.635-1.54-0.149-2.274c0.522-0.815,1.328-0.947,3.738-0.584c6.117,0.896,10.856,3.734,13.961,8.344   c1.744,2.596,2.831,5.646,3.206,8.917c0.13,1.198,0.13,3.382-0.011,3.744c-0.133,0.342-0.556,0.806-0.919,0.997   c-0.392,0.201-1.229,0.182-1.691-0.061c-0.776-0.392-1.008-1.016-1.008-2.707c0-2.607-0.676-5.355-1.845-7.488   C47.905,17.651,45.973,15.639,43.611,14.24z" fill="#7B509C"/><path d="M47.02,27.655c-0.596,0.544-1.693,0.564-2.36,0.05c-0.481-0.362-0.635-0.745-0.745-1.781   c-0.133-1.379-0.373-2.345-0.787-3.24c-0.888-1.903-2.448-2.889-5.088-3.212c-1.241-0.15-1.613-0.291-2.018-0.764   c-0.735-0.876-0.452-2.295,0.565-2.818c0.383-0.19,0.544-0.212,1.39-0.161c0.525,0.03,1.301,0.121,1.715,0.211   c1.986,0.423,3.506,1.177,4.807,2.396c1.674,1.581,2.592,3.493,2.994,6.24C47.764,26.367,47.652,27.072,47.02,27.655z" fill="#5F3882"/><path d="M61.554,49.333c-0.593-0.714-4.991-4.296-7.046-5.736c-1.562-1.087-3.98-2.586-5.091-3.16   c-1.463-0.745-2.913-0.875-4.334-0.393c-1.119,0.383-1.49,0.715-3.123,2.768c-0.848,1.047-1.623,1.993-1.725,2.084   c-0.105,0.086-0.432,0.271-0.751,0.419c-2.502,3.014-5.449,5.62-8.747,7.696c5.154,3.692,10.811,6.8,17.018,9.355   c1.804,0.745,2.389,0.866,3.8,0.796c1.715-0.082,3.013-0.615,4.849-2.004c2.026-1.539,4.928-5.142,5.674-7.064   C62.781,52.274,62.603,50.622,61.554,49.333z" fill="#5F3882"/></g></svg>